<?xml version="1.0" standalone="no"?>
<!DOCTYPE svg PUBLIC "-//W3C//DTD SVG 20010904//EN"
 "http://www.w3.org/TR/2001/REC-SVG-20010904/DTD/svg10.dtd">
<svg version="1.0" xmlns="http://www.w3.org/2000/svg"
 width="400.000000pt" height="400.000000pt" viewBox="0 0 400.000000 400.000000"
 preserveAspectRatio="xMidYMid meet">
<metadata>
Created by potrace 1.14, written by Peter Selinger 2001-2017
</metadata>
<g transform="translate(0.000000,400.000000) scale(0.100000,-0.100000)"
fill="#000000" stroke="none">
<path d="M0 2000 l0 -2000 2000 0 2000 0 0 2000 0 2000 -2000 0 -2000 0 0
-2000z m752 531 l3 -450 434 450 434 449 171 0 171 0 -101 -102 c-55 -57 -248
-255 -428 -440 l-328 -337 444 -527 c244 -290 447 -534 451 -541 6 -11 -22
-13 -150 -13 l-159 0 -373 450 c-206 248 -377 450 -381 450 -3 0 -48 -42 -98
-94 l-92 -93 0 -357 0 -356 -125 0 -125 0 0 980 0 980 125 0 125 0 2 -449z
m1878 -421 l0 -870 435 0 435 0 0 -110 0 -110 -555 0 -555 0 0 980 0 980 120
0 120 0 0 -870z"/>
</g>
</svg>
